<svg xmlns="http://www.w3.org/2000/svg" width="14" height="15" fill="none" viewBox="0 0 14 15">
  <path fill="#fff" fill-rule="evenodd" d="M3.25 4.25A3.754 3.754 0 0 1 7 .5a3.754 3.754 0 0 1 3.75 3.75A3.754 3.754 0 0 1 7 8a3.754 3.754 0 0 1-3.75-3.75ZM7 6.5A2.25 2.25 0 1 1 7 2a2.25 2.25 0 0 1 0 4.5Z" clip-rule="evenodd"/>
  <path fill="#fff" d="M13.75 14v.75h-1.5V14a3.754 3.754 0 0 0-3.75-3.75h-3A3.754 3.754 0 0 0 1.75 14v.75H.25V14A5.256 5.256 0 0 1 5.5 8.75h3A5.257 5.257 0 0 1 13.75 14Z"/>
</svg>
