<svg xmlns="http://www.w3.org/2000/svg" width="78" height="78" fill="none" viewBox="0 0 78 78">
  <g clip-path="url(#a)">
    <path fill="#FFBA08" d="M47.176 65c0 7.18-5.82 13-13 13s-13-5.82-13-13 5.82-13 13-13 13 5.82 13 13Z"/>
    <path fill="#EF4444" d="M47.176 65c0 7.18-5.82 13-13 13s-13-5.82-13-13 5.82-13 13-13 13 5.82 13 13Z" opacity=".3"/>
    <path fill="url(#b)" d="M56.952 38.744C45.934 37.17 37.426 27.696 37.426 16.25c0-3.25.695-6.334 1.927-9.133a22.651 22.651 0 0 0-5.177-.617c-12.545 0-22.75 10.205-22.75 22.75v9.061c0 6.432-2.818 12.503-7.761 16.682a5.673 5.673 0 0 0-1.99 4.32A5.694 5.694 0 0 0 7.364 65h53.625a5.694 5.694 0 0 0 5.688-5.688 5.7 5.7 0 0 0-2.022-4.348 21.76 21.76 0 0 1-7.702-16.22Z"/>
    <path fill="url(#c)" d="M76.426 16.25c0 8.975-7.275 16.25-16.25 16.25s-16.25-7.275-16.25-16.25C43.926 7.276 51.2 0 60.176 0s16.25 7.276 16.25 16.25Z"/>
  </g>
  <defs>
    <linearGradient id="b" x1="-2.5" x2="59.5" y1="54" y2="19" gradientUnits="userSpaceOnUse">
      <stop stop-color="#FFBA08"/>
      <stop offset="1" stop-color="#FFDB7E"/>
    </linearGradient>
    <linearGradient id="c" x1="42.5" x2="60" y1="37.5" y2="-1.5" gradientUnits="userSpaceOnUse">
      <stop stop-color="#7A1CD0"/>
      <stop offset="1" stop-color="#6366F1"/>
    </linearGradient>
    <clipPath id="a">
      <path fill="#fff" d="M0 0h78v78H0z"/>
    </clipPath>
  </defs>
</svg>
