<svg xmlns="http://www.w3.org/2000/svg" width="28" height="28" fill="none" viewBox="0 0 28 28">
  <path fill="#6366F1" d="M21.287 18.523c-.915-.904-2.057-.904-2.966 0a175.83 175.83 0 0 0-2.068 2.074c-.186.192-.344.233-.571.105-.449-.245-.926-.443-1.358-.711-2.01-1.264-3.694-2.89-5.185-4.72-.74-.909-1.399-1.882-1.859-2.977-.093-.221-.076-.367.105-.548.693-.67 1.37-1.357 2.051-2.045.95-.955.95-2.074-.006-3.035-.542-.548-1.084-1.084-1.625-1.632-.56-.56-1.113-1.124-1.678-1.678-.915-.891-2.057-.891-2.966.006-.7.687-1.37 1.392-2.08 2.068C.422 6.054.09 6.817.02 7.71c-.111 1.45.244 2.82.745 4.154 1.026 2.762 2.587 5.215 4.48 7.464 2.559 3.041 5.612 5.447 9.183 7.184 1.608.78 3.275 1.38 5.087 1.48 1.247.07 2.33-.245 3.199-1.218.594-.664 1.264-1.27 1.893-1.905.933-.944.938-2.086.012-3.018-1.107-1.113-2.22-2.22-3.333-3.327Zm-1.113-4.644 2.15-.367a9.609 9.609 0 0 0-2.686-5.186 9.557 9.557 0 0 0-5.477-2.732l-.303 2.161A7.415 7.415 0 0 1 18.1 9.87a7.414 7.414 0 0 1 2.074 4.009Zm3.362-9.346A15.853 15.853 0 0 0 14.446 0l-.302 2.162c2.994.42 5.71 1.777 7.854 3.915a13.735 13.735 0 0 1 3.851 7.429l2.15-.367a15.969 15.969 0 0 0-4.463-8.606Z"/>
</svg>
