<svg xmlns="http://www.w3.org/2000/svg" width="28" height="27" fill="none" viewBox="0 0 28 27">
  <path fill="#22C55E" d="M14.055 0C21.745 0 28 5.52 28 12.305c0 2.866-1.134 5.643-3.199 7.845a4.988 4.988 0 0 0 1.318 4.7c.515.514.15 1.4-.58 1.4a9.044 9.044 0 0 1-6.265-2.53c-1.657.59-3.41.89-5.22.89C6.366 24.61 0 19.09 0 12.304S6.365 0 14.055 0Zm6.453 14.766a2.464 2.464 0 0 0 2.46-2.461 2.464 2.464 0 0 0-2.46-2.461 2.464 2.464 0 0 0-2.461 2.46 2.464 2.464 0 0 0 2.46 2.462Zm-6.563 0a2.464 2.464 0 0 0 2.461-2.461 2.464 2.464 0 0 0-2.46-2.461 2.464 2.464 0 0 0-2.462 2.46 2.464 2.464 0 0 0 2.461 2.462Zm-6.562 0a2.464 2.464 0 0 0 2.46-2.461 2.464 2.464 0 0 0-2.46-2.461 2.464 2.464 0 0 0-2.461 2.46 2.464 2.464 0 0 0 2.46 2.462Z"/>
</svg>
