<svg width="20" height="20" viewBox="0 0 20 20" fill="none" xmlns="http://www.w3.org/2000/svg">
<path d="M10.0003 1.6665C5.40533 1.6665 1.66699 5.40484 1.66699 9.99984C1.66699 14.5948 5.40533 18.3332 10.0003 18.3332C14.5953 18.3332 18.3337 14.5948 18.3337 9.99984C18.3337 5.40484 14.5953 1.6665 10.0003 1.6665ZM10.0003 16.6665C6.32449 16.6665 3.33366 13.6757 3.33366 9.99984C3.33366 6.324 6.32449 3.33317 10.0003 3.33317C13.6762 3.33317 16.667 6.324 16.667 9.99984C16.667 13.6757 13.6762 16.6665 10.0003 16.6665Z" fill="#22C55E"/>
<path d="M8.33273 11.3223L6.4169 9.40981L5.24023 10.5898L8.3344 13.6773L13.9227 8.08898L12.7444 6.91064L8.33273 11.3223Z" fill="#22C55E"/>
</svg>
