<svg width="20" height="20" viewBox="0 0 20 20" fill="none" xmlns="http://www.w3.org/2000/svg">
<path d="M7.64318 13.5348L9.99984 11.1782L12.3565 13.5348L13.5348 12.3565L11.1782 9.99984L13.5348 7.64318L12.3565 6.46484L9.99984 8.82151L7.64318 6.46484L6.46484 7.64318L8.82151 9.99984L6.46484 12.3565L7.64318 13.5348Z" fill="#EF4444"/>
<path d="M9.99984 18.3332C14.5948 18.3332 18.3332 14.5948 18.3332 9.99984C18.3332 5.40484 14.5948 1.6665 9.99984 1.6665C5.40484 1.6665 1.6665 5.40484 1.6665 9.99984C1.6665 14.5948 5.40484 18.3332 9.99984 18.3332ZM9.99984 3.33317C13.6757 3.33317 16.6665 6.324 16.6665 9.99984C16.6665 13.6757 13.6757 16.6665 9.99984 16.6665C6.324 16.6665 3.33317 13.6757 3.33317 9.99984C3.33317 6.324 6.324 3.33317 9.99984 3.33317Z" fill="#EF4444"/>
</svg>
