<svg xmlns="http://www.w3.org/2000/svg" width="122" height="44" fill="none" viewBox="0 0 122 44">
  <path fill="#0B0F19" d="M60.68 29.649a8.28 8.28 0 0 0 2.18-.287 6.206 6.206 0 0 0 1.903-.86 4.337 4.337 0 0 0 1.33-1.463c.335-.593.502-1.286.502-2.077 0-.743-.14-1.357-.42-1.842a3.413 3.413 0 0 0-1.054-1.166 5.4 5.4 0 0 0-1.33-.696 15.34 15.34 0 0 0-1.269-.41l-2.558-.695a7.274 7.274 0 0 1-.92-.307c-.3-.123-.55-.283-.748-.481-.198-.205-.297-.467-.297-.788 0-.348.12-.648.359-.9a2.32 2.32 0 0 1 .941-.573 3.39 3.39 0 0 1 1.238-.185 3.43 3.43 0 0 1 1.842.594c.56.375.921.92 1.085 1.637l3.008-.512c-.355-1.384-1.044-2.445-2.067-3.182-1.023-.737-2.299-1.115-3.827-1.136-1.01-.007-1.93.15-2.763.471-.832.32-1.497.808-1.995 1.463s-.747 1.477-.747 2.466c0 .703.116 1.286.348 1.75.239.457.535.826.89 1.105.355.28.72.495 1.095.645.382.15.716.266 1.003.348l3.827 1.125c.573.17.955.386 1.146.645.19.252.286.529.286.829 0 .41-.14.754-.42 1.033-.272.28-.623.491-1.053.635-.43.143-.873.215-1.33.215a3.68 3.68 0 0 1-2.19-.686c-.641-.457-1.064-1.108-1.269-1.954l-2.906.43c.15.995.505 1.855 1.064 2.578a5.612 5.612 0 0 0 2.16 1.658c.88.382 1.865.573 2.957.573Zm8.369-12.893h2.783V14.3h-2.783v2.456Zm0 12.586h2.783V18.29h-2.783v11.05Zm6.055 0h2.784V14.3h-2.784v15.042Zm6.056-12.586h2.783V14.3H81.16v2.456Zm0 12.586h2.783V18.29H81.16v11.05Zm10.721.307c1.283 0 2.36-.318 3.234-.952.873-.634 1.467-1.538 1.78-2.712l-2.844-.593c-.164.532-.41.941-.737 1.228-.327.286-.805.43-1.433.43-.839 0-1.473-.297-1.903-.89-.423-.601-.634-1.382-.634-2.344 0-.92.201-1.688.604-2.302.409-.621 1.053-.931 1.933-.931.512 0 .97.16 1.372.48.409.321.695.768.86 1.341l2.782-.737c-.245-1.139-.811-2.036-1.698-2.69-.88-.663-1.972-.994-3.275-.994-1.125 0-2.1.253-2.926.758a5.185 5.185 0 0 0-1.924 2.077c-.45.88-.675 1.88-.675 2.998 0 1.105.218 2.098.655 2.978a5.066 5.066 0 0 0 1.882 2.087c.82.512 1.801.768 2.947.768Zm11.734 0c1.105 0 2.078-.246 2.917-.737a5.207 5.207 0 0 0 1.974-2.057c.478-.88.717-1.893.717-3.039 0-1.14-.236-2.145-.706-3.018a5.192 5.192 0 0 0-1.975-2.067c-.839-.498-1.815-.748-2.927-.748-1.091 0-2.056.246-2.896.737a5.213 5.213 0 0 0-1.974 2.057c-.478.873-.717 1.886-.717 3.04 0 1.138.232 2.148.696 3.028a5.229 5.229 0 0 0 1.965 2.057c.839.498 1.814.747 2.926.747Zm0-2.6c-.866 0-1.524-.29-1.975-.87-.443-.586-.665-1.374-.665-2.363 0-.962.212-1.74.635-2.333.429-.6 1.098-.9 2.005-.9.88 0 1.542.293 1.985.88.451.586.676 1.37.676 2.353 0 .948-.222 1.726-.665 2.333-.437.6-1.102.9-1.996.9Zm7.837 2.293h2.825v-5.608c0-.689.075-1.241.225-1.658.157-.416.354-.73.593-.94.239-.22.495-.366.768-.44a2.9 2.9 0 0 1 .767-.113c.594 0 1.051.133 1.371.399.328.266.563.597.706.992.144.396.229.791.256 1.187.027.389.041.71.041.962v5.219h2.824V23.14c0-.184-.013-.478-.041-.88a6.97 6.97 0 0 0-.235-1.33 4.574 4.574 0 0 0-.655-1.413c-.3-.45-.723-.822-1.269-1.115-.545-.293-1.252-.44-2.118-.44-.798 0-1.494.133-2.087.4a4.43 4.43 0 0 0-1.494 1.063V18.29h-2.477v11.05Z"/>
  <path fill="url(#a)" d="m10.217 22-6.13-9.72L22.989 0l-.51 10.744L10.216 22Z"/>
  <path fill="url(#b)" d="M22.478 10.744 22.99 0l19.413 8.698-4.087 17.395-26.054 4.093L10.217 22l12.261-11.256Z"/>
  <path fill="url(#c)" d="M31.163 44 12.261 30.186l26.054-4.093 4.598 4.605L31.163 44Z"/>
  <path fill="url(#d)" d="m38.315 26.093 4.598 4.605L47 17.907l-4.598-9.21-4.087 17.396Z"/>
  <path fill="url(#e)" d="M12.26 30.186 31.164 44l-18.902-2.558L0 26.605l12.26 3.581Z"/>
  <path fill="url(#f)" d="M4.087 12.28 0 26.604l12.26 3.581L10.218 22l-6.13-9.72Z"/>
  <path fill="#000" fill-opacity=".17" d="M31.164 44 12.262 30.186l26.054-4.093 4.598 4.604L31.164 44Z"/>
  <path fill="#000" fill-opacity=".1" d="m38.315 26.093 4.597 4.605L47 17.908l-4.598-9.21-4.087 17.395Z"/>
  <path fill="#000" fill-opacity=".23" d="M12.26 30.186 31.164 44l-18.902-2.558L0 26.605l12.26 3.58Z"/>
  <path fill="silver" fill-opacity=".05" d="M4.087 12.28 0 26.604l12.26 3.581L10.218 22l-6.13-9.72Z"/>
  <path fill="#fff" fill-opacity=".15" d="m10.217 22-6.13-9.72L22.989 0l-.51 10.744L10.216 22Z"/>
  <path fill="#fff" fill-opacity=".15" fill-rule="evenodd" d="m10.217 22 12.261-11.256L22.99 0 4.087 12.28l6.13 9.72Zm.064-.474 11.897-10.923.476-10.02L4.508 12.372l5.773 9.154Z" clip-rule="evenodd"/>
  <path fill="#fff" fill-opacity=".15" fill-rule="evenodd" d="M22.778 10.885 10.56 22.103l1.931 7.736 25.574-4.017 3.982-16.948L23.274.464l-.496 10.421Zm-.3-.14L10.218 22l2.043 8.186 26.054-4.093 4.087-17.395L22.99 0l-.51 10.744Z" clip-rule="evenodd"/>
  <path fill="#fff" fill-opacity=".15" fill-rule="evenodd" d="M31.118 43.587 42.492 30.71l-4.283-4.29-25.17 3.954 18.08 13.213Zm.045.413 11.75-13.302-4.598-4.605-26.054 4.093L31.163 44Z" clip-rule="evenodd"/>
  <path fill="#fff" fill-opacity=".15" fill-rule="evenodd" d="M42.913 30.698 47 17.907l-4.598-9.21-4.087 17.396 4.598 4.605Zm-4.26-4.701 4.121 4.128 3.896-12.192-4.163-8.34-3.854 16.404Zm-26.53 4.469L.873 27.179 12.42 41.154l17.584 2.38-17.881-13.068Zm.138-.28L0 26.605l12.26 14.837L31.164 44 12.261 30.186Z" clip-rule="evenodd"/>
  <path fill="#fff" fill-opacity=".15" fill-rule="evenodd" d="m.378 26.395 11.456 3.347-1.902-7.62-5.738-9.1L.378 26.396Zm-.378.21 12.26 3.581L10.218 22l-6.13-9.72L0 26.604Z" clip-rule="evenodd"/>
  <path fill="#fff" d="M23.697 19.016h3.469c-.05-3.05-2.558-5.157-6.369-5.157-3.752 0-6.502 2.073-6.485 5.182-.009 2.524 1.772 3.97 4.663 4.663l1.864.468c1.864.452 2.9.987 2.908 2.14-.008 1.254-1.195 2.106-3.034 2.106-1.88 0-3.234-.87-3.35-2.582H13.86c.092 3.702 2.742 5.616 6.895 5.616 4.18 0 6.636-1.998 6.645-5.132-.009-2.85-2.157-4.362-5.132-5.03l-1.538-.369c-1.487-.342-2.733-.894-2.708-2.122 0-1.104.978-1.914 2.75-1.914 1.73 0 2.792.785 2.925 2.13Zm8.853.287h-3.232v11.906h3.233V19.303Zm-1.204-9.396h-1.183l-1.474.933v1.117l1.363-.855h.035v4.759h1.259V9.907Zm1.324 4.907h2.858v1.047h1.204v-1.047h.738v-1.008h-.738V9.907h-1.576l-2.485 3.916v.991Zm2.881-1.008h-1.613v-.047l1.567-2.48h.046v2.527Z"/>
  <defs>
    <linearGradient id="a" x1="0" x2="47" y1="22.105" y2="22.105" gradientUnits="userSpaceOnUse">
      <stop stop-color="#6366F1"/>
      <stop offset=".5" stop-color="#8B5CF6"/>
      <stop offset="1" stop-color="#D946EF"/>
    </linearGradient>
    <linearGradient id="b" x1="0" x2="47" y1="22.105" y2="22.105" gradientUnits="userSpaceOnUse">
      <stop stop-color="#6366F1"/>
      <stop offset=".5" stop-color="#8B5CF6"/>
      <stop offset="1" stop-color="#D946EF"/>
    </linearGradient>
    <linearGradient id="c" x1="0" x2="47" y1="22.105" y2="22.105" gradientUnits="userSpaceOnUse">
      <stop stop-color="#6366F1"/>
      <stop offset=".5" stop-color="#8B5CF6"/>
      <stop offset="1" stop-color="#D946EF"/>
    </linearGradient>
    <linearGradient id="d" x1="0" x2="47" y1="22.105" y2="22.105" gradientUnits="userSpaceOnUse">
      <stop stop-color="#6366F1"/>
      <stop offset=".5" stop-color="#8B5CF6"/>
      <stop offset="1" stop-color="#D946EF"/>
    </linearGradient>
    <linearGradient id="e" x1="0" x2="47" y1="22.105" y2="22.105" gradientUnits="userSpaceOnUse">
      <stop stop-color="#6366F1"/>
      <stop offset=".5" stop-color="#8B5CF6"/>
      <stop offset="1" stop-color="#D946EF"/>
    </linearGradient>
    <linearGradient id="f" x1="0" x2="47" y1="22.105" y2="22.105" gradientUnits="userSpaceOnUse">
      <stop stop-color="#6366F1"/>
      <stop offset=".5" stop-color="#8B5CF6"/>
      <stop offset="1" stop-color="#D946EF"/>
    </linearGradient>
  </defs>
</svg>
