<svg width="438" height="375" viewBox="0 0 438 375" fill="none" xmlns="http://www.w3.org/2000/svg">
<g filter="url(#filter0_dd_4633_10122)">
<rect x="11" y="30" width="416" height="329" rx="8" fill="white"/>
<path d="M49.6316 84.1193C49.5456 83.8673 49.3183 83.6893 49.053 83.6687L45.2523 83.3667L43.6076 79.726C43.5003 79.4867 43.2623 79.3333 43.0003 79.3333C42.7383 79.3333 42.5003 79.4867 42.393 79.7253L40.7483 83.3667L36.9476 83.6687C36.687 83.6893 36.4623 83.8607 36.3736 84.1067C36.285 84.3527 36.3476 84.628 36.535 84.8107L39.3436 87.5487L38.3503 91.85C38.289 92.116 38.3963 92.3927 38.621 92.548C38.7356 92.6267 38.8676 92.6667 39.0003 92.6667C39.129 92.6667 39.2583 92.6293 39.3703 92.5547L43.0003 90.1347L46.6303 92.5547C46.8623 92.7093 47.167 92.7033 47.3936 92.5387C47.619 92.374 47.7183 92.0853 47.6416 91.8173L46.4223 87.5507L49.4463 84.8293C49.6443 84.6507 49.717 84.372 49.6316 84.1193Z" fill="#FFBA08"/>
<path d="M67.6316 84.1193C67.5456 83.8673 67.3183 83.6893 67.053 83.6687L63.2523 83.3667L61.6076 79.726C61.5003 79.4867 61.2623 79.3333 61.0003 79.3333C60.7383 79.3333 60.5003 79.4867 60.393 79.7253L58.7483 83.3667L54.9476 83.6687C54.687 83.6893 54.4623 83.8607 54.3736 84.1067C54.285 84.3527 54.3476 84.628 54.535 84.8107L57.3436 87.5487L56.3503 91.85C56.289 92.116 56.3963 92.3927 56.621 92.548C56.7356 92.6267 56.8676 92.6667 57.0003 92.6667C57.129 92.6667 57.2583 92.6293 57.3703 92.5547L61.0003 90.1347L64.6303 92.5547C64.8623 92.7093 65.167 92.7033 65.3936 92.5387C65.619 92.374 65.7183 92.0853 65.6416 91.8173L64.4223 87.5507L67.4463 84.8293C67.6443 84.6507 67.717 84.372 67.6316 84.1193Z" fill="#FFBA08"/>
<path d="M85.6316 84.1193C85.5456 83.8673 85.3183 83.6893 85.053 83.6687L81.2523 83.3667L79.6076 79.726C79.5003 79.4867 79.2623 79.3333 79.0003 79.3333C78.7383 79.3333 78.5003 79.4867 78.393 79.7253L76.7483 83.3667L72.9476 83.6687C72.687 83.6893 72.4623 83.8607 72.3736 84.1067C72.285 84.3527 72.3476 84.628 72.535 84.8107L75.3436 87.5487L74.3503 91.85C74.289 92.116 74.3963 92.3927 74.621 92.548C74.7356 92.6267 74.8676 92.6667 75.0003 92.6667C75.129 92.6667 75.2583 92.6293 75.3703 92.5547L79.0003 90.1347L82.6303 92.5547C82.8623 92.7093 83.167 92.7033 83.3936 92.5387C83.619 92.374 83.7183 92.0853 83.6416 91.8173L82.4223 87.5507L85.4463 84.8293C85.6443 84.6507 85.717 84.372 85.6316 84.1193Z" fill="#FFBA08"/>
<path d="M103.632 84.1193C103.546 83.8673 103.318 83.6893 103.053 83.6687L99.2523 83.3667L97.6076 79.726C97.5003 79.4867 97.2623 79.3333 97.0003 79.3333C96.7383 79.3333 96.5003 79.4867 96.393 79.7253L94.7483 83.3667L90.9476 83.6687C90.687 83.6893 90.4623 83.8607 90.3736 84.1067C90.285 84.3527 90.3476 84.628 90.535 84.8107L93.3436 87.5487L92.3503 91.85C92.289 92.116 92.3963 92.3927 92.621 92.548C92.7356 92.6267 92.8676 92.6667 93.0003 92.6667C93.129 92.6667 93.2583 92.6293 93.3703 92.5547L97.0003 90.1347L100.63 92.5547C100.862 92.7093 101.167 92.7033 101.394 92.5387C101.619 92.374 101.718 92.0853 101.642 91.8173L100.422 87.5507L103.446 84.8293C103.644 84.6507 103.717 84.372 103.632 84.1193Z" fill="#FFBA08"/>
<path d="M111.344 87.5487L110.351 91.85C110.29 92.116 110.396 92.3927 110.622 92.548C110.736 92.6267 110.868 92.6667 111 92.6667C111.129 92.6667 111.258 92.6293 111.37 92.5547L115 90.1347L118.63 92.5547C118.862 92.7093 119.167 92.7033 119.394 92.5387C119.619 92.374 119.718 92.0853 119.642 91.8173L118.422 87.5507L121.446 84.8293C121.644 84.6507 121.717 84.372 121.632 84.12C121.546 83.868 121.318 83.6907 121.053 83.6693L117.252 83.3667L115.608 79.726C115.5 79.4867 115.262 79.3333 115 79.3333C114.738 79.3333 114.5 79.4867 114.393 79.726L112.748 83.3667L108.948 83.6687C108.686 83.6893 108.462 83.8607 108.374 84.1067C108.284 84.3527 108.348 84.628 108.535 84.8107L111.344 87.5487ZM113.246 84.6647C113.488 84.6453 113.702 84.496 113.801 84.274L115 81.62L116.2 84.274C116.299 84.496 116.512 84.6453 116.754 84.6647L119.402 84.8747L117.222 86.8373C117.032 87.008 116.957 87.2707 117.026 87.516L117.862 90.4393L115.371 88.7787C115.147 88.6287 114.856 88.6287 114.632 88.7787L112.029 90.514L112.729 87.4833C112.781 87.2567 112.712 87.0187 112.545 86.8567L110.52 84.882L113.246 84.6647Z" fill="#B4B7C9"/>
</g>
<g filter="url(#filter1_d_4633_10122)">
<rect x="35" y="2" width="44" height="44" rx="6" fill="#6366F1"/>
<path d="M67 16.0293C64.3099 15.5938 62.3119 16.1084 61.0058 17.573C59.6998 19.0375 59.0468 21.1948 59.0468 24.0447V32.1196H67V24.0447H62.9064C62.692 22.6198 62.8869 21.462 63.4912 20.5714C64.115 19.6808 65.1287 19.2948 66.5322 19.4136L67 16.0293ZM54.9532 16.0293C52.2632 15.5938 50.2651 16.1084 48.9591 17.573C47.653 19.0375 47 21.1948 47 24.0447V32.1196H54.9532V24.0447H50.8596C50.6452 22.6198 50.8402 21.462 51.4444 20.5714C52.0682 19.6808 53.0819 19.2948 54.4854 19.4136L54.9532 16.0293Z" fill="white"/>
</g>
<defs>
<filter id="filter0_dd_4633_10122" x="0" y="23.4" width="438" height="351" filterUnits="userSpaceOnUse" color-interpolation-filters="sRGB">
<feFlood flood-opacity="0" result="BackgroundImageFix"/>
<feColorMatrix in="SourceAlpha" type="matrix" values="0 0 0 0 0 0 0 0 0 0 0 0 0 0 0 0 0 0 127 0" result="hardAlpha"/>
<feMorphology radius="1" operator="erode" in="SourceAlpha" result="effect1_dropShadow_4633_10122"/>
<feOffset dy="2"/>
<feGaussianBlur stdDeviation="3.2"/>
<feColorMatrix type="matrix" values="0 0 0 0 0.0745098 0 0 0 0 0.0627451 0 0 0 0 0.133333 0 0 0 0.03 0"/>
<feBlend mode="normal" in2="BackgroundImageFix" result="effect1_dropShadow_4633_10122"/>
<feColorMatrix in="SourceAlpha" type="matrix" values="0 0 0 0 0 0 0 0 0 0 0 0 0 0 0 0 0 0 127 0" result="hardAlpha"/>
<feMorphology radius="1" operator="erode" in="SourceAlpha" result="effect2_dropShadow_4633_10122"/>
<feOffset dy="4.4"/>
<feGaussianBlur stdDeviation="6"/>
<feColorMatrix type="matrix" values="0 0 0 0 0.0745098 0 0 0 0 0.0627451 0 0 0 0 0.133333 0 0 0 0.06 0"/>
<feBlend mode="normal" in2="effect1_dropShadow_4633_10122" result="effect2_dropShadow_4633_10122"/>
<feBlend mode="normal" in="SourceGraphic" in2="effect2_dropShadow_4633_10122" result="shape"/>
</filter>
<filter id="filter1_d_4633_10122" x="25" y="0" width="64" height="64" filterUnits="userSpaceOnUse" color-interpolation-filters="sRGB">
<feFlood flood-opacity="0" result="BackgroundImageFix"/>
<feColorMatrix in="SourceAlpha" type="matrix" values="0 0 0 0 0 0 0 0 0 0 0 0 0 0 0 0 0 0 127 0" result="hardAlpha"/>
<feMorphology radius="8" operator="erode" in="SourceAlpha" result="effect1_dropShadow_4633_10122"/>
<feOffset dy="8"/>
<feGaussianBlur stdDeviation="9"/>
<feColorMatrix type="matrix" values="0 0 0 0 0.388235 0 0 0 0 0.4 0 0 0 0 0.945098 0 0 0 0.9 0"/>
<feBlend mode="normal" in2="BackgroundImageFix" result="effect1_dropShadow_4633_10122"/>
<feBlend mode="normal" in="SourceGraphic" in2="effect1_dropShadow_4633_10122" result="shape"/>
</filter>
</defs>
</svg>
